<svg width="30" height="30" viewBox="0 0 30 30" fill="none" xmlns="http://www.w3.org/2000/svg">
<path d="M14.0625 20.5453C13.5159 20.3522 13.125 19.8309 13.125 19.2188C13.125 18.4425 13.755 17.8125 14.5312 17.8125C15.3075 17.8125 15.9375 18.4425 15.9375 19.2188C15.9375 19.8309 15.5466 20.3522 15 20.5453V22.9772C15 23.2238 14.79 23.4375 14.5312 23.4375C14.28 23.4375 14.0625 23.2313 14.0625 22.9772V20.5453ZM7.5 13.125C5.94563 13.1297 4.6875 14.3813 4.6875 15.9459V25.3031C4.6875 26.8613 5.94937 28.1241 7.50844 28.1241H21.5541C23.1122 28.1241 24.375 26.8706 24.375 25.3031V15.9459C24.375 14.3906 23.1178 13.1288 21.5625 13.125V9.84281C21.5625 5.95969 18.4069 2.8125 14.5312 2.8125C10.6481 2.8125 7.5 5.95969 7.5 9.84281V13.125ZM10.3125 13.125V9.84469C10.3125 7.50844 12.2016 5.625 14.5312 5.625C16.8562 5.625 18.75 7.51406 18.75 9.84469V13.125H10.3125Z" fill="white"/>
</svg>
