<?xml version="1.0" standalone="no"?>
<!DOCTYPE svg PUBLIC "-//W3C//DTD SVG 20010904//EN"
 "http://www.w3.org/TR/2001/REC-SVG-20010904/DTD/svg10.dtd">
<svg version="1.0" xmlns="http://www.w3.org/2000/svg"
 width="641.000000pt" height="273.000000pt" viewBox="0 0 641.000000 273.000000"
 preserveAspectRatio="xMidYMid meet">

<g transform="translate(0.000000,273.000000) scale(0.100000,-0.100000)"
fill="#000000" stroke="none">
<path d="M0 1365 l0 -1365 3205 0 3205 0 0 1365 0 1365 -3205 0 -3205 0 0
-1365z m6290 -10 l0 -1245 -3085 0 -3085 0 0 1245 0 1245 3085 0 3085 0 0
-1245z"/>
<path d="M1280 2215 l0 -65 34 0 34 0 4 65 3 65 -37 0 -38 0 0 -65z"/>
<path d="M1516 2266 c-57 -22 -78 -47 -83 -103 -6 -63 17 -92 107 -138 78 -39
92 -61 58 -88 -26 -22 -87 -18 -138 8 l-30 16 0 -45 c0 -25 4 -47 9 -51 27
-16 119 -25 167 -15 73 15 109 55 109 120 0 61 -26 91 -118 135 -66 32 -83 59
-51 82 24 18 88 16 124 -2 l30 -16 0 45 c0 25 -5 48 -11 52 -23 14 -134 14
-173 0z"/>
<path d="M2226 2272 c-8 -13 -146 -403 -146 -413 0 -5 22 -9 50 -9 l49 0 14
48 14 47 75 3 74 3 14 -51 14 -50 53 0 c29 0 53 1 53 3 0 1 -33 97 -74 212
l-73 210 -56 3 c-30 2 -58 -1 -61 -6z m104 -244 c0 -5 -23 -8 -51 -8 -40 0
-50 3 -46 14 3 8 11 34 17 57 27 101 29 102 56 19 13 -41 24 -78 24 -82z"/>
<path d="M2605 2266 c-65 -25 -93 -73 -81 -140 8 -42 31 -63 108 -101 77 -38
92 -59 59 -86 -30 -24 -76 -24 -126 1 -22 11 -41 20 -42 20 -2 0 -3 -20 -3
-45 0 -40 3 -47 28 -56 15 -6 56 -12 92 -12 110 -1 170 43 170 127 0 46 -40
93 -106 122 -51 22 -84 48 -84 64 0 37 89 53 143 26 l27 -15 0 44 c0 24 -5 47
-11 51 -24 14 -134 14 -174 0z"/>
<path d="M3592 2158 c-24 -68 -58 -165 -77 -215 l-33 -93 53 0 54 0 13 48 14
47 74 0 74 0 15 -47 15 -48 52 0 53 0 -64 183 c-35 100 -69 197 -75 215 -12
31 -14 32 -69 32 l-56 0 -43 -122z m127 -62 c12 -37 21 -70 21 -72 0 -2 -23
-4 -51 -4 -44 0 -51 2 -46 18 26 94 43 140 48 134 4 -4 17 -38 28 -76z"/>
<path d="M4015 2266 c-57 -22 -85 -57 -85 -110 0 -58 26 -89 110 -131 77 -39
92 -61 60 -87 -29 -23 -74 -22 -127 2 l-43 19 0 -44 c0 -24 4 -46 9 -50 27
-16 119 -25 167 -15 73 15 109 55 109 120 0 61 -26 91 -118 135 -66 32 -83 59
-51 82 24 18 88 16 124 -2 l30 -16 0 45 c0 25 -5 48 -11 52 -24 14 -134 14
-174 0z"/>
<path d="M5085 2268 c-49 -136 -145 -410 -145 -414 0 -3 23 -4 51 -2 l52 3 14
48 14 47 73 0 72 0 15 -47 15 -48 52 -3 c29 -2 52 1 52 5 -1 4 -33 100 -73
213 l-72 205 -58 3 c-40 2 -59 -1 -62 -10z m110 -238 c4 -6 -15 -10 -49 -10
l-55 0 15 48 c8 26 19 64 26 85 l12 39 22 -76 c13 -42 26 -81 29 -86z"/>
<path d="M5474 2270 c-75 -23 -111 -99 -78 -167 15 -29 33 -45 80 -68 75 -37
94 -52 94 -76 0 -40 -109 -49 -156 -14 -11 8 -22 15 -26 15 -11 0 -10 -88 1
-95 28 -17 119 -25 170 -14 77 16 111 51 111 117 0 60 -22 88 -107 130 -79 40
-92 56 -67 83 16 18 27 20 69 16 27 -2 58 -8 68 -12 14 -6 17 -1 17 33 0 23
-5 44 -11 48 -19 11 -132 14 -165 4z"/>
<path d="M700 2235 c0 -24 5 -35 15 -35 13 0 15 -22 15 -140 0 -118 -2 -140
-15 -140 -10 0 -15 -11 -15 -35 l0 -35 80 0 80 0 0 35 c0 24 -5 35 -15 35 -13
0 -15 22 -15 140 0 118 2 140 15 140 10 0 15 11 15 35 l0 35 -80 0 -80 0 0
-35z"/>
<path d="M880 2235 l0 -35 60 0 60 0 0 -175 0 -175 50 0 50 0 0 175 0 175 60
0 60 0 0 35 0 35 -170 0 -170 0 0 -35z"/>
<path d="M3210 2060 l0 -210 125 0 125 0 0 40 0 40 -75 0 -75 0 0 50 0 50 65
0 65 0 0 35 0 35 -65 0 -65 0 0 50 0 50 70 0 70 0 0 35 0 35 -120 0 -120 0 0
-210z"/>
<path d="M4249 2248 c5 -13 34 -74 65 -136 53 -106 56 -117 56 -187 l0 -75 50
0 50 0 0 79 c0 77 1 81 65 203 36 69 65 128 65 132 0 3 -22 6 -49 6 l-49 0
-39 -88 -38 -89 -39 89 -39 88 -53 0 c-51 0 -53 -1 -45 -22z"/>
<path d="M1412 1610 c-232 -61 -430 -263 -491 -502 -29 -113 -34 -189 -21
-286 36 -251 176 -454 385 -557 286 -141 632 -57 822 198 148 200 189 450 111
687 -113 346 -468 548 -806 460z m268 -645 l5 -320 45 -11 c38 -9 45 -15 48
-37 l3 -27 -200 0 -201 0 0 24 c0 21 6 24 50 30 28 4 62 12 75 18 l25 11 0
259 0 258 -76 0 -75 0 3 33 c3 32 4 32 68 39 36 4 92 16 125 27 109 35 99 63
105 -304z"/>
<path d="M3040 1619 c-351 -90 -569 -388 -547 -748 7 -119 26 -190 79 -300 34
-69 59 -103 128 -172 111 -112 222 -170 374 -196 93 -15 106 -15 194 1 163 29
279 92 392 213 82 88 140 196 171 322 18 70 20 104 16 200 -6 133 -21 199 -74
306 -91 188 -257 320 -463 371 -62 15 -217 17 -270 3z m221 -299 c165 -46 197
-226 71 -400 -14 -19 -66 -77 -116 -127 l-91 -93 148 0 147 0 0 -50 0 -50
-245 0 -245 0 0 26 c0 19 27 55 100 135 114 124 174 210 195 283 18 60 20 155
3 191 -22 48 -97 46 -123 -5 -17 -33 -20 -106 -5 -115 18 -11 11 -22 -26 -40
-90 -42 -167 30 -135 127 15 44 68 96 117 113 46 17 154 19 205 5z"/>
<path d="M4613 1610 c-243 -63 -443 -277 -498 -533 -24 -109 -17 -296 15 -387
50 -148 115 -245 222 -337 117 -100 268 -156 423 -156 358 -1 651 284 682 664
16 211 -67 432 -219 580 -162 159 -408 225 -625 169z m303 -338 c134 -69 140
-238 12 -303 l-40 -21 49 -23 c62 -28 92 -69 100 -135 16 -134 -95 -230 -267
-230 -86 0 -169 29 -205 71 -36 43 -35 109 1 138 30 24 61 26 98 9 23 -10 25
-15 20 -49 -6 -33 -3 -42 24 -69 32 -31 54 -36 96 -20 52 19 74 125 40 196
-17 36 -82 74 -127 74 -24 0 -27 4 -27 34 0 32 2 35 41 41 26 5 55 19 78 40
34 32 36 37 36 97 0 82 -21 118 -68 118 -23 0 -41 -8 -56 -24 -20 -22 -23 -33
-19 -85 4 -55 2 -60 -19 -70 -73 -34 -136 6 -136 84 0 36 5 51 29 76 57 60
113 79 219 75 58 -2 92 -9 121 -24z"/>
</g>
</svg>
