<?xml version="1.0" standalone="no"?>
<!DOCTYPE svg PUBLIC "-//W3C//DTD SVG 20010904//EN"
 "http://www.w3.org/TR/2001/REC-SVG-20010904/DTD/svg10.dtd">
<svg version="1.0" xmlns="http://www.w3.org/2000/svg"
 width="474.000000pt" height="246.000000pt" viewBox="0 0 474.000000 246.000000"
 preserveAspectRatio="xMidYMid meet">

<g transform="translate(0.000000,246.000000) scale(0.100000,-0.100000)"
fill="#000000" stroke="none">
<path d="M0 1230 l0 -1230 2370 0 2370 0 0 1230 0 1230 -2370 0 -2370 0 0
-1230z m4351 932 c4 -4 10 -409 14 -900 l7 -892 -467 0 c-369 0 -466 3 -463
13 4 9 105 13 451 15 l447 2 0 473 c0 259 -3 650 -7 868 l-6 397 -1196 6
c-658 3 -1544 8 -1968 10 l-773 4 0 -232 c0 -128 3 -524 7 -879 l6 -647 454 0
c396 0 453 -2 453 -15 0 -13 -58 -15 -465 -15 l-465 0 -4 23 c-3 12 -7 420
-10 906 l-6 884 1993 -7 c1095 -4 1995 -10 1998 -14z m-3453 -479 l2 -213 155
0 155 0 2 213 3 212 314 3 c174 1 319 -2 324 -7 5 -5 -19 -21 -57 -39 -118
-56 -212 -184 -253 -347 -26 -106 -24 -364 5 -466 44 -164 132 -284 243 -333
33 -16 57 -32 52 -36 -11 -11 -583 -20 -610 -9 -23 8 -23 8 -23 254 l0 245
-155 0 -155 0 0 -244 c0 -200 -3 -246 -14 -256 -11 -8 -55 -11 -148 -8 l-133
3 -3 610 c-1 336 0 616 3 623 3 10 39 12 147 10 l143 -3 3 -212z m1600 -2 c1
-132 -1 -218 -7 -224 -11 -11 -12 -10 -31 73 -32 141 -121 259 -235 316 -41
20 -72 41 -69 46 3 4 81 7 172 6 l167 -3 3 -214z m1170 -248 l2 -463 223 -2
222 -3 5 -148 c3 -94 1 -151 -5 -155 -15 -10 -602 -13 -838 -5 -204 8 -247 17
-176 37 17 6 58 34 89 63 63 58 120 160 140 248 19 84 28 273 19 384 -24 271
-115 428 -282 485 -10 3 -15 10 -12 16 4 7 111 9 308 8 l302 -3 3 -462z
m-1582 168 c97 -59 138 -206 115 -414 -16 -143 -52 -210 -128 -243 -105 -45
-211 18 -249 150 -24 83 -25 288 -1 366 19 64 67 127 111 146 45 20 116 17
152 -5z m845 8 c50 -17 96 -66 116 -123 14 -41 18 -84 18 -216 0 -185 -13
-245 -63 -293 -31 -29 -115 -50 -180 -45 l-37 3 -3 330 c-1 181 0 336 3 342 6
16 99 17 146 2z m-433 -730 l-3 -214 -154 -3 c-85 -1 -158 1 -163 6 -5 5 14
20 46 36 110 54 219 207 241 341 10 60 14 70 26 58 6 -6 8 -92 7 -224z m-1043
-493 c-1 -95 -2 -99 -28 -122 -16 -13 -36 -24 -46 -24 -23 0 -71 37 -71 55 0
25 22 28 40 5 10 -13 25 -21 36 -18 17 3 19 14 22 93 3 105 6 118 29 113 16
-3 18 -16 18 -102z m69 13 c1 -57 6 -92 15 -102 16 -20 74 -22 89 -4 6 7 12
53 14 103 3 81 5 89 23 89 18 0 20 -8 23 -67 6 -133 -31 -187 -121 -175 -66 9
-81 34 -86 132 -3 96 1 118 25 113 14 -2 17 -18 18 -89z m351 66 c27 -26 31
-40 14 -51 -6 -3 -22 5 -35 20 -27 28 -60 33 -88 13 -29 -22 -9 -45 50 -57 37
-8 60 -19 74 -37 26 -33 25 -46 -3 -78 -43 -51 -157 -36 -178 23 -13 35 16 40
46 8 40 -43 127 -29 109 18 -3 9 -25 20 -48 26 -62 15 -90 33 -100 63 -8 22
-6 31 14 52 33 35 110 36 145 0z m230 5 c0 -10 -12 -16 -37 -18 l-37 -3 -3
-97 c-2 -78 -6 -97 -18 -97 -12 0 -16 19 -18 98 l-3 97 -34 0 c-18 0 -37 5
-40 10 -15 24 10 31 98 28 74 -2 92 -6 92 -18z m125 5 c6 -8 9 -19 6 -24 -4
-6 -4 -22 0 -36 6 -23 11 -25 60 -25 l53 0 3 48 c3 39 6 47 23 47 19 0 20 -8
23 -109 2 -72 -1 -113 -9 -122 -20 -25 -39 3 -39 58 l0 49 -57 -3 -58 -3 -1
-46 c-1 -57 -10 -75 -30 -58 -10 8 -14 39 -14 119 0 58 3 110 7 113 10 11 19
8 33 -8z m377 -2 c77 -50 65 -179 -21 -219 -129 -62 -235 117 -125 211 37 30
106 34 146 8z m99 6 c4 -7 7 -53 6 -103 l-1 -91 60 -5 c86 -7 73 -25 -18 -25
l-78 0 -3 104 c-1 58 0 111 2 118 7 16 22 17 32 2z m320 -23 c29 -29 34 -41
34 -82 0 -57 -28 -111 -63 -119 -12 -3 -50 -5 -82 -3 l-60 3 -3 104 c-1 58 0
111 2 118 4 9 26 13 72 13 62 0 68 -2 100 -34z m179 -86 c0 -108 -1 -115 -20
-115 -19 0 -20 8 -23 104 -3 117 0 134 25 129 16 -3 18 -17 18 -118z m218 113
c13 -13 -16 -33 -49 -33 l-33 0 -3 -97 c-2 -79 -6 -98 -18 -98 -12 0 -16 19
-18 98 l-3 97 -34 0 c-35 0 -51 12 -40 30 7 11 188 14 198 3z"/>
<path d="M2513 453 c-55 -10 -73 -104 -28 -148 30 -31 77 -33 105 -5 27 27 28
110 3 132 -22 19 -51 26 -80 21z"/>
<path d="M2890 365 l0 -85 39 0 c60 0 86 27 86 88 0 65 -15 82 -76 82 l-49 0
0 -85z"/>
</g>
</svg>
