<?xml version="1.0" standalone="no"?>
<!DOCTYPE svg PUBLIC "-//W3C//DTD SVG 20010904//EN"
 "http://www.w3.org/TR/2001/REC-SVG-20010904/DTD/svg10.dtd">
<svg version="1.0" xmlns="http://www.w3.org/2000/svg"
 width="589.000000pt" height="244.000000pt" viewBox="0 0 589.000000 244.000000"
 preserveAspectRatio="xMidYMid meet">

<g transform="translate(0.000000,244.000000) scale(0.100000,-0.100000)"
fill="#000000" stroke="none">
<path d="M222 2329 c-26 -13 -55 -39 -70 -62 l-27 -41 -3 -970 c-2 -672 0
-982 8 -1008 13 -44 52 -93 91 -113 42 -22 5395 -23 5437 -1 36 19 78 65 91
99 8 19 11 337 11 998 0 850 -2 974 -15 1006 -21 50 -42 72 -90 94 -36 17 -70
19 -312 19 l-273 0 0 -375 0 -375 -30 0 -30 0 0 375 0 375 -2372 0 -2373 0
-43 -21z m1008 -139 c31 -31 27 -93 -6 -119 -34 -27 -84 -27 -118 0 -34 27
-37 88 -4 119 30 27 100 28 128 0z m2050 -340 l0 -360 -75 0 -75 0 0 360 0
360 75 0 75 0 0 -360z m-2354 319 l44 -11 0 -79 0 -78 -46 20 c-64 29 -140 35
-187 15 -35 -14 -38 -19 -35 -48 3 -31 10 -37 110 -88 123 -64 144 -81 169
-135 44 -96 4 -205 -95 -258 -36 -19 -56 -22 -161 -22 -90 0 -129 5 -157 17
l-38 17 0 80 c0 45 2 81 5 81 2 0 20 -11 40 -24 93 -64 255 -52 255 18 0 31
-14 42 -134 101 -121 60 -156 101 -164 189 -8 97 41 164 147 202 45 16 187 18
247 3z m3046 -52 c63 -37 88 -80 88 -151 0 -68 -16 -103 -70 -148 l-40 -35 30
-28 29 -28 42 37 c51 43 89 47 124 11 36 -36 30 -75 -20 -127 l-26 -28 26 -37
c33 -49 32 -78 -4 -114 -40 -39 -79 -39 -125 2 l-36 31 -57 -28 c-76 -36 -214
-45 -290 -20 -85 28 -133 99 -133 196 0 77 40 141 115 185 16 10 15 14 -9 59
-32 60 -33 98 -3 156 17 35 34 51 77 73 51 27 62 29 145 25 77 -3 98 -8 137
-31z m-1575 -117 c59 -35 67 -65 71 -257 l4 -173 35 0 c33 0 34 -1 31 -37 l-3
-38 -137 -3 -138 -3 0 41 c0 38 2 40 30 40 l30 0 0 150 c0 139 -2 152 -21 171
-27 27 -70 20 -119 -20 l-35 -28 -3 -137 -3 -136 31 0 c28 0 30 -2 30 -40 l0
-40 -135 0 -135 0 0 40 c0 39 1 40 35 40 l35 0 0 180 0 180 -35 0 c-34 0 -35
1 -35 40 l0 40 105 0 105 0 0 -42 0 -43 23 27 c56 68 165 90 234 48z m-753
-35 c34 -23 36 -23 36 -5 0 18 7 20 81 20 l81 0 -4 -257 c-3 -219 -6 -264 -21
-297 -28 -64 -65 -104 -120 -134 -48 -25 -61 -27 -167 -27 -151 0 -160 5 -160
90 0 36 2 65 5 65 3 0 21 -6 40 -14 131 -55 252 -9 262 101 3 38 2 44 -7 30
-34 -54 -151 -73 -226 -37 -122 59 -153 270 -61 410 52 78 185 106 261 55z
m1292 -1 c67 -49 69 -56 72 -275 l4 -200 -69 3 c-62 3 -68 5 -71 25 l-3 23
-36 -27 c-26 -20 -49 -28 -91 -31 -107 -6 -166 53 -159 161 6 100 56 140 201
159 79 11 87 14 84 32 -7 49 -102 57 -193 17 l-45 -20 0 63 0 63 53 16 c77 24
216 19 253 -9z m-1696 -229 l0 -245 -75 0 -75 0 0 245 0 245 75 0 75 0 0 -245z
m3770 -218 c0 -37 -4 -46 -24 -55 -45 -20 -59 -54 -54 -136 4 -79 23 -116 60
-116 15 0 18 -8 18 -50 l0 -50 -139 0 -138 0 -7 83 c-7 86 4 168 28 214 36 69
164 152 234 153 19 0 22 -5 22 -43z m153 23 c71 -27 134 -83 163 -144 21 -44
24 -66 24 -169 l0 -118 -142 3 -143 3 -3 42 c-3 40 -1 43 31 57 40 16 57 54
57 128 0 62 -23 107 -61 120 -26 9 -29 14 -29 54 0 40 2 44 25 44 13 0 48 -9
78 -20z m-83 -129 c16 -32 12 -122 -7 -143 -20 -22 -51 -23 -75 -1 -24 21 -26
124 -2 147 22 23 71 20 84 -3z m-3766 -282 c76 -28 146 -106 146 -163 0 -63
-43 -101 -113 -100 -32 1 -45 7 -56 25 -9 13 -30 39 -47 57 -26 26 -40 32 -73
32 -86 0 -139 -87 -129 -215 9 -104 53 -155 135 -155 31 0 44 8 82 49 56 60
81 73 120 65 113 -23 106 -170 -12 -238 -193 -111 -434 -46 -521 143 -18 39
-21 65 -21 166 0 107 3 125 24 165 40 76 77 115 141 149 101 54 215 61 324 20z
m963 -3 l28 -24 0 -305 0 -305 -24 -26 c-34 -36 -111 -37 -146 -1 l-25 24 0
306 0 306 25 24 c34 35 102 35 142 1z m268 -1 l25 -24 0 -303 c0 -338 0 -339
-66 -357 -55 -15 -108 7 -124 52 -14 40 -14 566 0 603 16 40 39 53 93 54 38 0
53 -5 72 -25z m1460 -32 c23 -23 35 -58 35 -104 l0 -39 44 0 c50 0 69 -17 69
-61 0 -40 -12 -50 -67 -56 l-47 -6 3 -121 c3 -112 4 -121 23 -124 52 -8 66
-14 80 -36 22 -33 10 -73 -27 -92 -40 -20 -156 -21 -194 -1 -68 35 -84 81 -84
247 l0 126 -42 10 c-33 7 -44 15 -51 37 -13 42 13 77 58 77 35 0 35 0 35 45 0
48 20 99 42 108 31 13 107 6 123 -10z m1344 -150 c-4 -107 -7 -122 -31 -165
-58 -98 -148 -143 -283 -142 -101 0 -169 28 -225 91 -57 65 -80 134 -80 243
l0 90 311 0 311 0 -3 -117z m-3468 5 c61 -21 107 -57 136 -105 25 -44 28 -57
28 -143 0 -79 -4 -102 -22 -137 -44 -82 -130 -124 -253 -124 -123 0 -209 42
-253 124 -18 35 -22 58 -22 137 0 85 3 100 27 141 29 49 84 92 139 108 48 13
180 13 220 -1z m1154 -5 c98 -35 176 -146 161 -228 -11 -55 -44 -65 -221 -65
-85 0 -145 -4 -145 -10 0 -25 26 -61 55 -75 44 -20 50 -20 125 16 80 38 117
40 142 9 34 -42 14 -90 -51 -122 -57 -28 -225 -38 -297 -18 -114 32 -174 118
-174 250 0 125 52 206 156 244 56 21 188 20 249 -1z m598 1 c109 -37 147 -161
58 -189 -22 -7 -53 6 -100 40 -89 65 -179 -9 -157 -129 17 -88 86 -112 162
-57 58 43 86 47 119 18 43 -37 39 -80 -12 -128 -22 -20 -58 -42 -79 -48 -51
-14 -177 -14 -225 1 -51 15 -114 69 -141 122 -30 56 -32 194 -4 246 35 66 87
110 156 131 45 13 174 10 223 -7z"/>
<path d="M3793 2015 c-13 -9 -23 -25 -23 -35 0 -19 46 -80 60 -80 13 0 70 60
70 74 0 42 -69 69 -107 41z"/>
<path d="M3729 1691 c-35 -35 -35 -40 -8 -75 16 -21 29 -26 63 -26 23 0 52 7
65 16 l23 16 -48 49 c-27 27 -52 49 -57 49 -5 0 -22 -13 -38 -29z"/>
<path d="M1553 1855 c-46 -20 -66 -65 -61 -136 5 -76 33 -109 91 -109 29 0 45
7 68 29 26 27 29 36 29 96 0 79 -10 102 -55 121 -40 16 -32 17 -72 -1z"/>
<path d="M2775 1703 c-51 -13 -70 -57 -37 -86 46 -42 132 -1 132 63 0 28 -2
30 -37 29 -21 -1 -47 -4 -58 -6z"/>
<path d="M1723 806 c-26 -23 -28 -29 -28 -104 0 -71 3 -83 24 -106 14 -15 35
-26 51 -26 16 0 37 11 51 26 21 23 24 35 24 106 0 75 -2 81 -28 104 -15 13
-37 24 -47 24 -10 0 -32 -11 -47 -24z"/>
<path d="M2893 843 c-26 -5 -65 -50 -61 -71 2 -10 24 -14 88 -14 84 -1 85 -1
82 23 -5 44 -54 72 -109 62z"/>
</g>
</svg>
